<svg xmlns="http://www.w3.org/2000/svg" viewBox="0 0 32 32" width="32" height="32">
  <!-- Fundo circular branco -->
  <circle cx="16" cy="16" r="16" fill="#25D366"/>
  
  <!-- Logo oficial do WhatsApp -->
  <path d="M16 4C9.373 4 4 9.373 4 16c0 2.084.532 4.045 1.469 5.756L4 28l6.244-1.469C11.955 27.468 13.916 28 16 28c6.627 0 12-5.373 12-12S22.627 4 16 4zm0 21.6c-1.787 0-3.537-.48-5.067-1.387l-.363-.217-3.773.888.888-3.773-.217-.363A9.554 9.554 0 0 1 6.4 16c0-5.302 4.298-9.6 9.6-9.6s9.6 4.298 9.6 9.6-4.298 9.6-9.6 9.6z" fill="#ffffff"/>
  
  <!-- Símbolo do telefone dentro -->
  <path d="M12.5 11.2c-.1-.3-.3-.3-.4-.3h-.6c-.2 0-.5.1-.7.3-.2.2-.8.8-.8 1.9s.8 2.2.9 2.4c.1.1 1.4 2.2 3.4 3.1.5.2.8.3 1.1.4.5.2.9.1 1.3.1.4-.1 1.2-.5 1.4-.9.2-.5.2-.9.1-1-.1-.1-.2-.2-.4-.3l-1.2-.6c-.2-.1-.3-.1-.4.1l-.5.6c-.1.1-.2.1-.4 0-.2-.1-.7-.3-1.4-.9-.5-.5-.9-1-.9-1.1 0-.1 0-.2.1-.3l.3-.3c.1-.1.1-.2.2-.3.1-.1.1-.2 0-.3l-.6-1.4z" fill="#ffffff"/>
</svg>