<svg xmlns="http://www.w3.org/2000/svg" viewBox="0 0 128 128" width="128" height="128">
  <!-- Fundo circular verde WhatsApp oficial -->
  <circle cx="64" cy="64" r="64" fill="#25D366"/>
  
  <!-- Fundo interno branco (característico da logo oficial) -->
  <circle cx="64" cy="64" r="52" fill="#ffffff"/>
  
  <!-- Logo oficial do WhatsApp em verde -->
  <path d="M64 20c-24.264 0-44 19.736-44 44 0 7.648 1.952 14.848 5.376 21.12L20 100l15.488-5.376C41.152 98.048 48.352 100 56 100h8c24.264 0 44-19.736 44-44S88.264 20 64 20zm22.4 62.8c-.96 2.4-4.8 4.4-6.8 4.8-1.6.4-3.6.4-11.6-2.4-9.6-3.2-16-13.2-16.4-13.6-.4-.4-3.6-4.8-3.6-9.2s2.4-6.4 3.2-7.2c.8-.8 1.6-1.2 2-.1.2s1.2 0 1.6 0c.4 0 1.2-.4 2 1.6l2.8 6.8c.4.8.4 1.6 0 2-.4.4-.8.8-1.2 1.2l-1.2 1.2c-.4.4-.8.8-.4 1.6.4.8 2 3.2 4.4 5.2 3.2 2.8 6 3.6 6.8 4 .8.4 1.2.4 1.6-.4l2-2.4c.4-.8 1.2-.8 2-.4l4.8 2.4c.8.4 1.2.8 1.6 1.2.4.8.4 2.8-.4 4.8z" fill="#25D366"/>
</svg>