<svg xmlns="http://www.w3.org/2000/svg" viewBox="0 0 64 64" width="64" height="64">
  <!-- Fundo circular verde WhatsApp -->
  <circle cx="32" cy="32" r="32" fill="#25D366"/>
  
  <!-- Logo oficial do WhatsApp em alta resolução -->
  <path d="M32 8C18.746 8 8 18.746 8 32c0 4.168 1.064 8.09 2.938 11.512L8 56l12.488-2.938C23.91 54.936 27.832 56 32 56c13.254 0 24-10.746 24-24S45.254 8 32 8zm0 43.2c-3.574 0-7.074-.96-10.134-2.774l-.726-.434-7.546 1.776 1.776-7.546-.434-.726A19.108 19.108 0 0 1 12.8 32c0-10.604 8.596-19.2 19.2-19.2s19.2 8.596 19.2 19.2-8.596 19.2-19.2 19.2z" fill="#ffffff"/>
  
  <!-- Símbolo do telefone/chat interno -->
  <path d="M25 22.4c-.2-.6-.6-.6-.8-.6h-1.2c-.4 0-1 .2-1.4.6-.4.4-1.6 1.6-1.6 3.8s1.6 4.4 1.8 4.8c.2.2 2.8 4.4 6.8 6.2 1 .4 1.6.6 2.2.8 1 .4 1.8.2 2.6.2.8-.2 2.4-1 2.8-1.8.4-1 .4-1.8.2-2-.2-.2-.4-.4-.8-.6l-2.4-1.2c-.4-.2-.6-.2-.8.2l-1 1.2c-.2.2-.4.2-.8 0-.4-.2-1.4-.6-2.8-1.8-1-1-1.8-2-1.8-2.2 0-.2 0-.4.2-.6l.6-.6c.2-.2.2-.4.4-.6.2-.2.2-.4 0-.6L25 22.4z" fill="#ffffff"/>
</svg>